<svg width="1440" height="209" viewBox="0 0 1440 209" fill="none" xmlns="http://www.w3.org/2000/svg">
<path d="M1182 2.63034e-08C1062 0.00140297 902 56.119 782 56.119V162.74H1582V56.119C1462 56.119 1302 -0.00140291 1182 2.63034e-08Z" fill="#E4F7FB" fill-opacity="0.5"/>
<path d="M382 2.63034e-08C262 0.00140297 102 56.119 -18 56.119V162.74H782V56.119C662 56.119 502 -0.00140291 382 2.63034e-08Z" fill="#E4F7FB" fill-opacity="0.5"/>
<path d="M933 15C813 15.0014 653 71.119 533 71.119V177.74H1333V71.119C1213 71.119 1053 14.9986 933 15Z" fill="white" fill-opacity="0.7"/>
<path d="M1733 15C1613 15.0014 1453 71.119 1333 71.119V177.74H2133V71.119C2013 71.119 1853 14.9986 1733 15Z" fill="white" fill-opacity="0.7"/>
<path d="M133 15C13 15.0014 -147 71.119 -267 71.119V177.74H533V71.119C413 71.119 253 14.9986 133 15Z" fill="white" fill-opacity="0.7"/>
<path d="M290 35.3489C170 35.3504 10 95.2306 -110 95.2306V209H690V95.2306C570 95.2306 410 35.3474 290 35.3489Z" fill="#E4F7FB"/>
<path d="M1090 35.3489C970 35.3504 810 95.2306 690 95.2306V209H1490V95.2306C1370 95.2306 1210 35.3474 1090 35.3489Z" fill="#E4F7FB"/>
</svg>
