<svg width="3419" height="174" viewBox="0 0 3419 174" fill="none" xmlns="http://www.w3.org/2000/svg">
<path d="M2000 1.87488e-08C1880 0.00100002 1720 40.001 1600 40.001V115.999H2400V40.001C2280 40.001 2120 -0.000999981 2000 1.87488e-08Z" fill="white" fill-opacity="0.4"/>
<path d="M2800 1.87488e-08C2680 0.00100002 2520 40.001 2400 40.001V115.999H3200V40.001C3080 40.001 2920 -0.000999981 2800 1.87488e-08Z" fill="white" fill-opacity="0.4"/>
<path d="M400 1.87488e-08C280 0.00100002 120 40.001 0 40.001V115.999H800V40.001C680 40.001 520 -0.000999981 400 1.87488e-08Z" fill="white" fill-opacity="0.4"/>
<path d="M1200 1.87488e-08C1080 0.00100002 920 40.001 800 40.001V115.999H1600V40.001C1480 40.001 1320 -0.000999981 1200 1.87488e-08Z" fill="white" fill-opacity="0.4"/>
<path d="M2219 24C2099 24.001 1939 64.001 1819 64.001V139.999H2619V64.001C2499 64.001 2339 23.999 2219 24Z" fill="white" fill-opacity="0.8"/>
<path d="M3019 24C2899 24.001 2739 64.001 2619 64.001V139.999H3419V64.001C3299 64.001 3139 23.999 3019 24Z" fill="white" fill-opacity="0.8"/>
<path d="M619 24C499 24.001 339 64.001 219 64.001V139.999H1019V64.001C899 64.001 739 23.999 619 24Z" fill="white" fill-opacity="0.8"/>
<path d="M1419 24C1299 24.001 1139 64.001 1019 64.001V139.999H1819V64.001C1699 64.001 1539 23.999 1419 24Z" fill="white" fill-opacity="0.8"/>
<path d="M1525 58C1405 58.001 1245 98.001 1125 98.001V173.999H1925V98.001C1805 98.001 1645 57.999 1525 58Z" fill="#CAF0F8"/>
<path d="M2324 58C2204 58.001 2044 98.001 1924 98.001V173.999H2724V98.001C2604 98.001 2444 57.999 2324 58Z" fill="#CAF0F8"/>
</svg>
