<svg width="1440" height="211" viewBox="0 0 1440 211" fill="none" xmlns="http://www.w3.org/2000/svg">
<path d="M958 0.785156C838 0.786437 678 52.0341 558 52.0341V149.402H1358V52.0341C1238 52.0341 1078 0.783875 958 0.785156Z" fill="#EEEEEE" fill-opacity="0.4"/>
<path d="M1758 0.785156C1638 0.786437 1478 52.0341 1358 52.0341V149.402H2158V52.0341C2038 52.0341 1878 0.783875 1758 0.785156Z" fill="#EEEEEE" fill-opacity="0.4"/>
<path d="M158 0.785156C38 0.786437 -122 52.0341 -242 52.0341V149.402H558V52.0341C438 52.0341 278 0.783875 158 0.785156Z" fill="#EEEEEE" fill-opacity="0.4"/>
<path d="M992 31.5337C872 31.535 712 82.7826 592 82.7826V180.151H1392V82.7826C1272 82.7826 1112 31.5324 992 31.5337Z" fill="#EEEEEE" fill-opacity="0.8"/>
<path d="M1792 31.5337C1672 31.535 1512 82.7826 1392 82.7826V180.151H2192V82.7826C2072 82.7826 1912 31.5324 1792 31.5337Z" fill="#EEEEEE" fill-opacity="0.8"/>
<path d="M192 31.5337C72 31.535 -88 82.7826 -208 82.7826V180.151H592V82.7826C472 82.7826 312 31.5324 192 31.5337Z" fill="#EEEEEE" fill-opacity="0.8"/>
<path d="M273 62.2827C153 62.284 -7 113.532 -127 113.532V210.9H673V113.532C553 113.532 393 62.2814 273 62.2827Z" fill="white"/>
<path d="M1072 62.2827C952 62.284 792 113.532 672 113.532V210.9H1472V113.532C1352 113.532 1192 62.2814 1072 62.2827Z" fill="white"/>
</svg>
