<svg width="1440" height="229" viewBox="0 0 1440 229" fill="none" xmlns="http://www.w3.org/2000/svg">
<path d="M979 3.9599e-08C859 0.00211213 699 84.4856 579 84.4856V245H1379V84.4856C1259 84.4856 1099 -0.00211205 979 3.9599e-08Z" fill="#ADE8F4" fill-opacity="0.6"/>
<path d="M1779 3.9599e-08C1659 0.00211213 1499 84.4856 1379 84.4856V245H2179V84.4856C2059 84.4856 1899 -0.00211205 1779 3.9599e-08Z" fill="#ADE8F4" fill-opacity="0.6"/>
<path d="M179 3.9599e-08C59 0.00211213 -101 84.4856 -221 84.4856V245H579V84.4856C459 84.4856 299 -0.00211205 179 3.9599e-08Z" fill="#ADE8F4" fill-opacity="0.6"/>
<path d="M809 32C689 32.0019 529 106.83 409 106.83V249H1209V106.83C1089 106.83 929 31.9981 809 32Z" fill="#48CAE4" fill-opacity="0.3"/>
<path d="M1609 32C1489 32.0019 1329 106.83 1209 106.83V249H2009V106.83C1889 106.83 1729 31.9981 1609 32Z" fill="#48CAE4" fill-opacity="0.3"/>
<path d="M9 32C-111 32.0019 -271 106.83 -391 106.83V249H409V106.83C289 106.83 129 31.9981 9 32Z" fill="#48CAE4" fill-opacity="0.3"/>
<path d="M305 56C185 56.0015 25 115.514 -95 115.514V228.585H705V115.514C585 115.514 425 55.9985 305 56Z" fill="#48CAE4" fill-opacity="0.8"/>
<path d="M1105 56C985 56.0015 825 115.514 705 115.514V228.585H1505V115.514C1385 115.514 1225 55.9985 1105 56Z" fill="#48CAE4" fill-opacity="0.8"/>
</svg>
