<svg width="1440" height="183" viewBox="0 0 1440 183" fill="none" xmlns="http://www.w3.org/2000/svg">
<path d="M978 2.12619e-08C858 0.00113407 698 45.363 578 45.363V131.548H1378V45.363C1258 45.363 1098 -0.00113402 978 2.12619e-08Z" fill="white" fill-opacity="0.4"/>
<path d="M1778 2.12619e-08C1658 0.00113407 1498 45.363 1378 45.363V131.548H2178V45.363C2058 45.363 1898 -0.00113402 1778 2.12619e-08Z" fill="white" fill-opacity="0.4"/>
<path d="M178 2.12619e-08C58 0.00113407 -102 45.363 -222 45.363V131.548H578V45.363C458 45.363 298 -0.00113402 178 2.12619e-08Z" fill="white" fill-opacity="0.4"/>
<path d="M730 21C610 21.0011 450 66.363 330 66.363V152.548H1130V66.363C1010 66.363 850 20.9989 730 21Z" fill="white" fill-opacity="0.5"/>
<path d="M1530 21C1410 21.0011 1250 66.363 1130 66.363V152.548H1930V66.363C1810 66.363 1650 20.9989 1530 21Z" fill="white" fill-opacity="0.5"/>
<path d="M-70 21C-190 21.0011 -350 66.363 -470 66.363V152.548H330V66.363C210 66.363 50 20.9989 -70 21Z" fill="white" fill-opacity="0.5"/>
<path d="M273 50.54C153 50.5411 -7 95.903 -127 95.903V182.088H673V95.903C553 95.903 393 50.5388 273 50.54Z" fill="#CAF0F8"/>
<path d="M1072 50.54C952 50.5411 792 95.903 672 95.903V182.088H1472V95.903C1352 95.903 1192 50.5388 1072 50.54Z" fill="#CAF0F8"/>
</svg>
